<svg xmlns="http://www.w3.org/2000/svg" version="1.1" xmlns:xlink="http://www.w3.org/1999/xlink" xmlns:svgjs="http://svgjs.dev/svgjs" viewBox="0 0 1422 800"><defs><linearGradient x1="50%" y1="0%" x2="50%" y2="100%" id="ccchaos-grad"><stop stop-color="hsl(272, 99%, 54%)" stop-opacity="1" offset="0%"></stop><stop stop-color="hsl(89, 73%, 48%)" stop-opacity="1" offset="100%"></stop></linearGradient></defs><g stroke-width="2" stroke="url(#ccchaos-grad)" fill="none" stroke-linecap="round"><path d="M688.52 57.98Q697.29 62.11 706.4 67.61 715.86 74.51 725.69 82.64 735.88 91.71 746.42 101.33 757.31 111 768.51 120.23 780.02 128.55 791.79 135.6 803.8 141.13 816 145.05 828.35 147.46 840.79 148.63 853.28 148.96 865.76 148.97 878.18 149.22 890.48 150.26 902.61 152.56 914.5 156.47 926.11 162.16 937.39 169.62 948.29 178.64 958.77 188.82 968.8 199.64 978.34 210.49 987.38 220.74 995.9 229.82 1011.08 241.8 1024.71 248 1017.78 258.59 1009.66 269.18 1000.82 279.77 991.75 290.36 982.99 300.95 975.02 311.54 968.32 322.13 963.26 332.72 960.14 343.31 959.12 353.9 960.28 364.49 963.55 375.09 968.73 385.68 975.53 396.27 983.56 406.86 992.36 417.45 1001.43 428.04 1010.24 438.63 1018.3 449.22 1025.13 459.81 1030.35 470.4 1033.66 480.99 1034.86 491.58 1033.9 502.17 1030.82 512.76 1025.8 523.35 1019.13 533.95 1011.19 544.54 1002.43 555.13 993.37 565.72 984.51 576.31 976.37 586.9 964.08 598.31 952.23 606.72 940.85 611.76 929.95 613.39 919.57 611.96 909.69 608.14 900.34 602.9 891.49 597.36 875.47 591.35 860.77 593.54 854.1 600.7 847.75 611.32 841.68 624.85 835.83 640.4 830.15 656.87 824.59 673.03 819.08 687.66 813.58 699.73 802.33 711.47 790.64 712.24 784.44 707.35 777.98 700.91 764 689.51 749.04 684.48 740.95 687.91 732.51 695.38 722.2 696.66 711.63 700.94 700.86 707.17 689.93 714.1 678.86 720.42 667.7 724.89 656.49 726.49 645.26 724.52 634.07 718.67 622.93 709.06 611.9 696.21 600.99 680.99 590.23 664.51 579.65 648.01 569.26 632.71 559.08 619.7 549.12 609.8 539.39 603.49 529.89 600.85 520.61 601.56 511.55 604.96 502.69 610.09 494.02 615.81 485.53 620.95 469.04 623.62 452.87 616.99 444.91 607.77 436.98 595.65 429.05 581.44 421.11 566.14 422.65 555.8 424.31 545.47 426.02 535.14 427.67 524.8 429.16 514.47 430.42 504.14 431.36 493.8 431.94 483.47 432.12 473.14 431.89 462.81 431.27 452.47 430.29 442.14 429 431.81 427.49 421.47 425.83 411.14 424.12 400.81 422.47 390.47 420.95 380.14 419.67 369.81 418.7 359.47 418.09 349.14 417.87 338.81 418.06 328.48 418.65 318.14 419.6 307.81 420.86 297.48 422.36 287.15 424.01 276.81 425.71 266.48 427.38 256.15 434.49 241.07 449.93 236.34 459.73 234.97 469.47 231.85 479.11 226.78 488.63 219.81 498 211.16 507.22 201.26 516.26 190.63 525.11 179.89 533.76 169.64 542.19 160.41 550.4 152.63 558.4 146.54 573.68 140.15 588.39 137.57 602.37 136.71 616.06 133.83 622.82 130.23 629.59 125.08 636.41 118.42 643.3 110.45 650.32 101.51 657.5 92.03 664.88 82.51 672.49 73.4 684.44 61.55 688.52 57.98" stroke-dasharray="9 3" transform="rotate(0, 711, 400)" opacity="0.05"></path><path d="M689.83 70.24Q699.03 74.15 708.56 79.38 718.4 85.95 728.55 93.72 739 102.45 749.74 111.77 760.74 121.25 771.98 130.44 783.42 138.88 795.03 146.21 806.77 152.16 818.6 156.59 830.48 159.52 842.36 161.11 854.18 161.69 865.91 161.67 877.5 161.55 888.89 161.85 900.04 163.05 910.92 165.56 921.46 169.65 931.65 175.45 941.45 182.92 950.82 191.82 959.75 201.8 968.22 212.37 976.22 222.95 983.74 232.99 990.79 241.95 997.38 249.4 1002.74 262.08 993.84 279.36 985.29 289.63 976.78 299.9 968.76 310.17 961.66 320.43 955.84 330.7 951.63 340.97 949.23 351.24 948.79 361.5 950.32 371.77 953.74 382.04 958.87 392.31 965.43 402.57 973.09 412.84 981.43 423.11 990.02 433.38 998.39 443.64 1006.1 453.91 1012.75 464.18 1017.98 474.45 1021.51 484.71 1023.16 494.98 1022.84 505.25 1020.57 515.52 1016.46 525.78 1010.74 536.05 1003.7 546.32 995.73 556.59 987.24 566.86 978.68 577.12 970.51 587.39 958.36 594.79 946.54 599.07 935.11 600.27 924.09 598.73 913.5 595.09 903.36 590.18 893.68 584.98 884.46 580.53 867.61 579.07 852.06 586.48 844.98 595.83 838.25 608.01 831.84 622.31 825.7 637.81 819.8 653.46 814.09 668.18 808.52 680.98 803.05 691.04 783.87 696.14 769.7 686.64 757.29 676.37 744.12 672.36 737.04 675.9 729.67 683.13 719.15 684.22 708.49 688.08 697.7 693.81 686.84 700.31 675.93 706.43 665.01 711.07 654.12 713.28 643.3 712.37 632.56 707.96 621.95 700.04 611.48 688.94 601.18 675.31 591.07 660.03 581.15 644.17 571.45 628.82 561.97 615.01 552.72 603.61 543.68 595.23 526.34 589.93 509.6 593.18 501.53 598.12 493.6 603.47 478.15 610.16 462.94 609.99 455.41 604.68 447.89 596.27 440.36 585.14 432.79 571.95 434.48 561.87 436.25 551.79 438.01 541.71 439.66 531.63 441.12 521.54 442.3 511.46 443.15 501.38 443.62 491.3 443.69 481.21 443.35 471.13 442.62 461.05 441.53 450.97 440.16 440.89 438.56 430.8 436.83 420.72 435.05 410.64 433.32 400.56 431.74 390.48 430.38 380.39 429.32 370.31 428.61 360.23 428.29 350.15 428.38 340.07 428.88 329.98 429.75 319.9 430.96 309.82 432.43 299.74 434.09 289.66 435.85 279.58 437.62 269.49 444.85 254.32 459.97 247.73 469.53 244.53 479.04 239.49 488.48 232.63 497.83 224.2 507.06 214.58 516.16 204.24 525.1 193.74 533.87 183.64 542.45 174.45 550.84 166.56 559.02 160.24 566.99 155.59 582.2 151.38 596.8 150.13 610.51 149.2 623.8 145.77 630.27 141.8 636.67 136.35 643.05 129.5 649.43 121.47 655.85 112.6 662.35 103.3 668.97 94.01 675.73 85.17 686.25 73.7 689.83 70.24" stroke-dasharray="2 7" transform="rotate(4.04, 711, 400)" opacity="0.09"></path><path d="M692.97 82.5Q702.5 86.19 712.3 91.15 722.36 97.38 732.66 104.79 743.19 113.15 753.93 122.15 764.83 131.4 775.88 140.49 787.05 148.99 798.29 156.56 809.57 162.9 820.84 167.83 832.07 171.3 843.22 173.41 854.25 174.37 865.1 174.52 875.75 174.26 886.16 174.08 896.29 174.42 906.11 175.73 915.58 178.33 924.69 182.48 933.41 188.24 941.72 195.58 949.62 204.26 957.09 213.96 964.14 224.22 970.77 234.55 977 244.43 982.83 253.35 987.14 268.83 978.02 286.61 969.91 296.5 962.05 306.38 954.83 316.27 948.58 326.15 943.63 336.03 940.22 345.92 938.5 355.8 938.56 365.69 940.41 375.57 943.95 385.45 949.01 395.34 955.33 405.22 962.62 415.1 970.51 424.99 978.62 434.87 986.56 444.76 993.93 454.64 1000.37 464.52 1005.57 474.41 1009.28 484.29 1011.31 494.17 1011.57 504.06 1010.04 513.94 1006.8 523.83 1002 533.71 995.88 543.59 988.74 553.48 980.93 563.36 972.83 573.24 964.83 583.13 952.92 586.48 941.26 587.08 929.9 585.29 918.88 581.69 908.2 577.05 897.91 572.22 888.01 568.1 878.52 565.52 869.44 565.2 860.77 567.62 852.51 573.04 844.65 581.43 837.17 592.48 830.04 605.63 823.25 620.13 816.77 635.09 810.57 649.55 804.61 662.61 793.32 679.99 782.41 688.31 771.74 682.79 760.97 672.46 749.7 663.31 737.92 660.28 731.68 663.89 725.21 670.87 714.7 671.79 704.13 675.25 693.53 680.49 682.93 686.56 672.37 692.44 661.87 697.17 651.47 699.87 641.18 699.88 631.04 696.78 621.06 690.46 611.26 681.09 601.66 669.12 592.26 655.25 583.07 640.34 574.1 625.33 565.35 611.17 556.8 598.72 548.47 588.67 532.46 578.84 516.96 577.62 502.14 585.87 487.6 595.12 473.32 597.76 459.07 592.82 451.91 585.42 444.69 575.44 446.5 565.65 448.34 555.85 450.11 546.06 451.73 536.27 453.11 526.47 454.2 516.68 454.93 506.88 455.28 497.09 455.22 487.29 454.76 477.5 453.92 467.71 452.74 457.91 451.28 448.12 449.61 438.32 447.82 428.53 445.98 418.73 444.19 408.94 442.54 399.15 441.11 389.35 439.96 379.56 439.16 369.76 438.74 359.97 438.73 350.17 439.12 340.38 439.89 330.58 441.01 320.79 442.43 311 444.06 301.2 445.84 291.41 447.68 281.61 454.97 266.04 469.75 256.85 479.04 251.67 488.31 244.82 497.53 236.5 506.68 227.08 515.75 217.01 524.7 206.78 533.53 196.91 542.21 187.86 550.73 180 559.08 173.6 575.09 166.2 590.5 162.82 604.89 162.76 618.69 162.13 631.64 156.82 644.19 147.45 650.28 140.44 656.31 132.38 662.32 123.61 668.32 114.51 674.35 105.48 680.45 96.93 689.81 85.84 692.97 82.5" stroke-dasharray="4 6" transform="rotate(8.08, 711, 400)" opacity="0.13"></path><path d="M697.68 94.76Q707.37 98.25 717.27 102.93 727.35 108.83 737.61 115.86 748.01 123.84 758.52 132.48 769.13 141.46 779.8 150.4 790.49 158.91 801.17 166.65 811.81 173.32 822.37 178.73 832.81 182.76 843.11 185.44 853.23 186.9 863.13 187.38 872.79 187.22 882.17 186.81 899.85 187.42 916.51 190.86 924.21 194.92 931.53 200.51 938.48 207.58 945.05 215.93 951.26 225.26 957.11 235.19 962.61 245.26 967.8 254.99 972.69 263.94 977.31 271.71 969.94 281.16 962.31 290.6 954.75 300.04 947.6 309.48 941.19 318.92 935.81 328.36 931.69 337.8 929.02 347.24 927.92 356.68 928.44 366.13 930.56 375.57 934.18 385.01 939.14 394.45 945.22 403.89 952.13 413.33 959.58 422.77 967.23 432.21 974.74 441.65 981.76 451.1 987.98 460.54 993.13 469.98 996.96 479.42 999.32 488.86 1000.09 498.3 999.24 507.74 996.81 517.18 992.91 526.62 987.7 536.06 981.43 545.5 974.38 554.94 966.87 564.39 959.22 573.83 947.65 573.71 936.26 571.57 925.09 567.95 914.18 563.53 903.54 559.08 893.21 555.38 883.21 553.13 873.55 552.93 864.25 555.23 855.31 560.23 846.74 567.93 838.54 578.1 830.69 590.27 823.19 603.81 816.03 617.98 809.18 631.95 802.63 644.92 796.35 656.15 784.59 669.81 773.37 675.06 762.75 668.51 752.26 658.35 733.49 651.11 719.51 658.61 709.23 659.36 698.97 662.45 688.75 667.21 678.61 672.83 668.57 678.45 658.64 683.18 648.86 686.27 639.25 687.06 629.8 685.14 620.55 680.3 611.49 672.6 602.64 662.33 594 650 585.57 636.28 577.35 621.98 569.32 607.92 561.49 594.9 553.85 583.64 546.37 574.67 539.05 568.35 524.88 565.08 511.01 568.56 497.47 577.3 484.01 584.76 470.48 583.61 456.81 575.02 458.69 565.57 460.55 556.11 462.28 546.66 463.83 537.21 465.11 527.75 466.08 518.3 466.68 508.84 466.89 499.39 466.7 489.93 466.11 480.48 465.17 471.03 463.9 461.57 462.36 452.12 460.63 442.66 458.78 433.21 456.9 423.75 455.06 414.3 453.35 404.84 451.86 395.39 450.63 385.94 449.74 376.48 449.22 367.03 449.09 357.57 449.36 348.12 450.02 338.66 451.03 329.21 452.36 319.75 453.94 310.3 455.7 300.84 457.57 291.39 459.45 281.93 461.27 272.48 470.23 268.71 479.22 263.28 488.23 256.31 497.24 248.02 506.21 238.76 515.15 228.93 524.03 219 532.82 209.42 541.51 200.6 550.09 192.9 558.53 186.56 566.82 181.71 582.8 176.86 598.23 175.24 612.67 175.49 626.52 174.49 639.43 168.39 651.84 158.39 657.79 151.25 663.63 143.2 669.38 134.56 675.06 125.68 680.7 116.94 686.34 108.68 694.83 97.99 697.68 94.76" stroke-dasharray="9 9" transform="rotate(12.12, 711, 400)" opacity="0.16"></path><path d="M703.54 107.02Q722.99 114.71 742.89 126.92 763.05 142.76 783.26 160.16 803.27 176.46 822.86 189.25 841.78 197.11 859.84 200.11 876.84 199.86 892.65 199.05 907.16 200.63 920.35 206.94 932.23 218.89 942.88 235.7 952.44 254.99 961.1 273.58 946.78 291.49 933.47 309.39 923.34 327.3 918.04 345.2 918.42 363.11 924.43 381.02 935.09 398.92 948.66 416.83 962.93 434.73 975.59 452.64 984.57 470.54 988.42 488.45 986.5 506.35 979.13 524.26 967.51 542.16 953.53 560.07 931.38 553.87 909.83 545.67 889.1 540.66 869.42 543.16 850.9 555.26 833.66 576.12 817.7 602.16 803.01 628.15 789.5 648.74 777.03 660.16 765.44 661.41 754.52 654.58 744.05 644.34 733.81 636.48 723.55 636.17 713.08 646.35 693.48 649.69 674.31 659.17 655.71 669.16 637.81 673.97 620.67 669.59 604.34 654.88 588.8 631.85 574.01 605 559.89 579.89 546.33 561.44 533.2 552.48 520.37 552.87 507.68 559.67 495 568.03 482.18 572.74 469.13 569.82 472.87 551.7 475.97 533.59 477.94 515.47 478.45 497.35 477.43 479.24 475.03 461.12 471.64 443 467.83 424.89 464.2 406.77 461.35 388.66 459.74 370.54 459.64 352.42 461.06 334.3 463.77 316.19 467.32 298.07 471.15 279.95 488.44 267 505.84 249.52 523.24 230.33 540.5 212.62 557.46 199.05 574 190.94 590 187.9 605.35 188.03 619.97 188.55 633.83 186.65 646.93 180.37 659.29 169.14 671 153.91 682.17 136.8 692.96 120.42 703.54 107.02 703.54 107.02 703.54 107.02" stroke-dasharray="9 4" transform="rotate(16.16, 711, 400)" opacity="0.20"></path><path d="M710.04 119.27Q728.94 126.49 748.01 137.97 767.05 152.99 785.87 169.79 804.28 186.01 822.07 199.37 839.08 208.33 855.15 212.55 870.16 213.03 884.04 211.87 896.76 211.73 908.31 215.06 918.77 223.4 928.24 236.92 936.87 254.31 944.87 273.13 931.5 290.01 919.69 306.88 911.19 323.75 907.26 340.63 908.49 357.5 914.69 374.38 924.94 391.25 937.73 408.13 951.15 425 963.21 441.87 972.12 458.75 976.56 475.62 975.87 492.5 970.15 509.37 960.25 526.24 947.65 543.12 926.49 535.57 905.67 529.42 885.43 528.79 865.95 536.32 847.4 552.41 829.9 575.03 813.51 600.3 798.26 623.47 784.13 640.32 771.03 648.33 758.87 647.41 747.51 640.02 736.77 630.46 726.48 623.74 716.44 624.17 706.47 634.09 688.17 636.96 670.46 645.56 653.43 655.1 637.15 660.61 621.64 658.33 606.89 646.73 592.86 626.88 579.47 602.13 566.62 577.11 554.2 556.46 542.09 543.49 530.15 539.33 518.25 542.67 506.26 550.11 489.67 549.85 488.12 525.26 489.77 508.05 489.97 490.83 488.68 473.61 486.11 456.39 482.63 439.17 478.75 421.95 475.06 404.73 472.1 387.51 470.31 370.29 469.95 353.07 471.09 335.85 473.54 318.63 476.96 301.41 480.82 284.19 497.39 268.37 514.13 250 530.95 231.95 547.71 216.86 564.3 206.52 580.58 201.31 596.43 200.2 611.75 201.06 626.44 201.29 640.43 198.55 653.69 191.41 666.22 179.7 678.03 164.52 689.21 147.88 699.83 132.13 710.04 119.27 710.04 119.27 710.04 119.27" stroke-dasharray="2 6" transform="rotate(20.200000000000003, 711, 400)" opacity="0.24"></path><path d="M716.62 131.53Q734.59 138.27 752.47 149.02 770.09 163.2 787.3 179.31 803.92 195.3 819.84 209.08 834.91 219.06 849.05 224.57 862.19 226.09 874.31 225.16 885.42 223.98 895.56 224.91 904.82 229.83 913.33 239.64 921.25 254.02 928.76 271.44 916.55 287.27 906.28 303.1 899.35 318.93 896.68 334.77 898.64 350.6 904.96 366.43 914.79 382.26 926.8 398.09 939.38 413.93 950.83 429.76 959.6 445.59 964.52 461.42 964.92 477.25 960.75 493.08 952.57 508.91 941.48 524.74 921.46 518.34 901.56 515.9 882 520.18 862.97 532.25 844.63 551.19 827.11 574.32 810.5 597.82 794.87 617.71 780.24 630.85 766.58 635.78 753.84 633.13 741.95 625.47 730.78 616.7 720.21 611.1 710.09 612.19 700.25 621.84 683.52 624.26 667.46 632.01 652.13 641.02 637.53 647.02 623.65 646.54 610.43 637.82 597.83 621.2 585.74 599.02 574.06 574.96 562.68 553.12 551.47 536.94 540.33 528.41 529.13 527.53 517.77 532.36 501.93 534.36 500.24 512.88 501.54 496.63 501.41 480.39 499.88 464.15 497.15 447.9 493.59 431.66 489.68 415.41 485.94 399.17 482.89 382.93 480.92 366.68 480.31 350.44 481.14 334.19 483.3 317.95 486.49 301.7 490.29 285.46 506.09 268.12 522.12 250.29 538.29 234.46 554.49 222.55 570.61 215.43 586.54 212.76 602.16 213.06 617.37 214.19 632.06 213.84 646.16 210.15 659.6 202.18 672.34 190.08 684.39 175.03 695.74 158.92 711.54 137.68 716.62 131.53" stroke-dasharray="0 7" transform="rotate(24.24, 711, 400)" opacity="0.28"></path><path d="M722.72 143.79Q739.42 150.07 755.83 160.08 771.82 173.38 787.26 188.73 802.04 204.35 816.07 218.38 829.27 229.24 841.6 236.05 853.04 238.85 863.59 238.62 873.31 237.1 882.26 236.36 890.55 238.36 898.31 244.48 905.69 255.16 912.87 269.81 901.97 284.63 893.27 299.45 887.82 314.27 886.3 329.09 888.87 343.91 895.24 358.73 904.62 373.55 915.87 388.37 927.63 403.19 938.45 418.01 947.03 432.83 952.32 447.65 953.67 462.47 950.92 477.29 944.4 492.11 934.91 506.93 916.14 503.66 897.33 505.86 878.65 514.9 860.29 530.54 842.39 551.03 825.09 573.47 808.5 594.42 792.7 610.75 777.75 620.35 763.66 622.61 750.43 618.63 738.01 610.96 726.35 603.08 715.36 598.56 704.94 600.23 694.96 609.58 679.97 611.6 665.66 618.51 652.05 626.94 639.11 633.22 626.78 634.25 615.01 628.14 603.72 614.72 592.8 595.43 582.16 573.06 571.69 551.04 561.29 532.67 550.84 520.34 540.26 515.04 529.47 516.12 514.26 517.22 512.31 497.72 513.23 482.49 512.78 467.26 511.01 452.04 508.15 436.81 504.53 421.58 500.61 406.36 496.85 391.13 493.72 375.9 491.59 360.67 490.73 345.45 491.24 330.22 493.06 314.99 495.97 299.76 499.61 284.54 514.6 267.25 529.85 251.26 545.29 238.45 560.84 229.93 576.41 225.79 591.88 225.14 607.17 226.31 622.16 227.27 636.77 226.09 650.89 221.4 664.47 212.66 677.43 200.28 689.74 185.45 701.38 169.93 717.54 149.66 722.72 143.79" stroke-dasharray="1 5" transform="rotate(28.28, 711, 400)" opacity="0.32"></path><path d="M727.8 156.04Q742.98 161.87 757.74 171.15 771.98 183.55 785.61 198.05 798.56 213.18 810.78 227.27 822.24 238.84 832.92 246.86 842.86 251.07 852.07 251.95 868.39 249.85 883.35 251.77 890.35 258.58 897.3 269.57 887.83 283.44 880.67 297.31 876.6 311.18 876.09 325.06 879.17 338.93 885.52 352.8 894.43 366.67 904.94 380.55 915.89 394.42 926.09 408.29 934.42 422.17 939.96 436.04 942.12 449.91 940.65 463.79 935.72 477.66 927.86 491.53 910.44 492.62 892.83 499.6 875.2 512.63 857.7 530.58 840.46 551.28 823.63 571.97 807.3 589.8 791.57 602.52 776.52 608.86 762.19 608.89 748.6 603.97 735.75 596.55 723.63 589.62 712.18 586.11 701.35 588.3 691.06 597.33 677.86 598.97 665.31 605.08 653.36 612.88 641.98 619.27 631.09 621.5 620.63 617.71 610.5 607.33 600.61 591.11 590.88 571.03 581.19 549.79 571.47 530.3 561.63 515.07 551.59 505.68 541.3 502.48 526.62 500.14 524.31 481.51 524.84 467.3 524.06 453.09 522.08 438.88 519.1 424.67 515.45 410.46 511.53 396.25 507.77 382.04 504.59 367.83 502.31 353.62 501.21 339.41 501.4 325.2 502.85 311 505.41 296.79 508.8 282.58 522.94 266.84 537.36 253.72 552.02 244.35 566.83 239.1 581.74 237.47 596.66 238.24 611.49 239.71 626.15 240.12 640.54 237.95 654.58 232.25 668.19 222.84 681.29 210.28 693.84 195.78 705.78 180.89 722.45 161.63 727.8 156.04" stroke-dasharray="5 8" transform="rotate(32.32, 711, 400)" opacity="0.35"></path><path d="M731.43 168.31Q744.94 173.69 757.96 182.25 770.42 193.73 782.28 207.33 793.49 221.83 804.05 235.79 813.94 247.85 823.2 256.95 839.72 263.54 854.82 262.81 868.55 263.08 882.16 271.85 874.15 284.85 868.47 297.86 865.68 310.87 866.05 323.88 869.53 336.89 875.8 349.89 884.23 362.9 894.01 375.91 904.18 388.92 913.75 401.93 921.77 414.94 927.47 427.94 930.3 440.95 929.96 453.96 926.51 466.97 920.26 479.98 904.24 485.78 887.94 496.94 871.48 512.75 855.01 531.59 838.64 551.26 822.49 569.36 806.66 583.76 791.25 592.97 776.34 596.44 761.99 594.7 748.24 589.23 735.13 582.25 722.65 576.3 710.81 573.75 699.56 576.39 688.89 585.06 677.44 586.36 666.55 591.71 656.14 598.84 646.17 605.17 636.55 608.33 627.22 606.53 618.09 598.96 609.08 585.86 600.1 568.48 591.08 548.84 581.94 529.34 572.61 512.31 563.04 499.59 553.19 492.22 538.95 484.78 536.21 466.13 536.34 452.9 535.26 439.67 533.08 426.45 530.01 413.22 526.35 399.99 522.46 386.76 518.72 373.53 515.5 360.31 513.1 347.08 511.77 333.85 511.63 320.62 512.7 307.4 514.87 294.17 517.93 280.94 531.17 267.97 544.71 258.31 558.51 252.41 572.52 250.02 586.68 250.27 600.92 251.8 615.17 253.07 629.36 252.62 643.4 249.35 657.21 242.69 670.72 232.73 683.84 220.13 696.53 206.04 708.71 191.84 725.89 173.6 731.43 168.31" stroke-dasharray="0 5" transform="rotate(36.36, 711, 400)" opacity="0.39"></path><path d="M733.29 180.56Q745.08 185.51 756.38 193.35 767.14 203.9 777.34 216.55 786.98 230.3 796.06 243.94 804.61 256.26 812.66 266.24 827.33 275.57 841.07 276.87 857.58 282.07 856.7 301.84 855.05 314.07 856.16 326.3 859.95 338.53 866.08 350.76 874.02 362.98 883.09 375.21 892.49 387.44 901.42 399.67 909.1 411.9 914.86 424.13 918.21 436.37 918.86 448.6 916.74 460.83 912.05 473.06 897.45 483.08 882.52 497.26 867.34 514.4 852.03 532.74 836.69 550.33 821.42 565.29 806.31 576.17 791.46 582.15 776.93 583.22 762.81 580.16 749.14 574.48 735.97 568.11 723.32 563.16 711.22 561.5 699.66 564.5 688.63 572.8 678.8 573.79 669.39 578.42 660.34 584.86 651.58 590.99 643.05 594.8 634.67 594.66 626.36 589.62 618.07 579.54 609.71 565.11 601.23 547.71 592.57 529.18 583.69 511.53 574.53 496.57 565.08 485.66 555.31 479.48 545.21 477.92 547.12 465.61 547.98 453.3 547.72 440.99 546.35 428.68 544 416.37 540.87 404.06 537.23 391.75 533.39 379.44 529.69 367.13 526.45 354.82 523.95 342.51 522.41 330.2 521.95 317.89 522.62 305.58 524.37 293.27 527.03 280.96 539.35 271.48 551.97 265.41 564.86 262.61 577.98 262.44 591.31 263.84 604.77 265.5 618.33 266.12 631.9 264.6 645.44 260.2 658.86 252.68 672.1 242.3 685.08 229.79 697.75 216.21 710.04 202.75 727.59 185.56 733.29 180.56" stroke-dasharray="6 3" transform="rotate(40.400000000000006, 711, 400)" opacity="0.43"></path><path d="M733.21 192.82Q743.35 197.34 753.02 204.47 762.22 214.1 770.94 225.75 779.21 238.64 787.05 251.78 794.48 264.13 801.56 274.73 814.8 286.74 827.54 290.74 844.28 292.77 845.34 309.42 844.69 320.95 846.43 332.47 850.42 344 856.36 355.52 863.79 367.05 872.16 378.57 880.82 390.1 889.11 401.63 896.4 413.15 902.14 424.68 905.88 436.2 907.35 447.73 906.43 459.26 903.18 470.78 890.02 483.86 876.47 499.57 862.64 516.54 848.59 533.18 834.41 547.93 820.18 559.48 805.99 566.98 791.91 570.14 778.01 569.29 764.36 565.37 751.01 559.78 738.03 554.15 725.44 550.18 713.28 549.33 701.56 552.64 690.31 560.55 681.89 561.25 673.75 565.2 665.83 570.94 658.07 576.75 642.78 580.12 627.42 572.02 619.56 560.62 611.53 545.9 603.27 529.18 594.76 512.02 585.97 496.04 576.89 482.66 567.5 472.9 557.8 467.24 559.21 455.77 559.61 444.3 558.97 432.83 557.34 421.36 554.85 409.89 551.68 398.42 548.08 386.95 544.32 375.48 540.68 364.01 537.45 352.54 534.87 341.07 533.14 329.6 532.38 318.13 532.66 306.66 533.96 295.19 536.17 283.72 547.54 277.92 559.2 275.1 571.13 274.74 583.32 276 595.73 277.8 608.32 279.03 621.06 278.66 633.9 275.95 646.77 270.47 659.64 262.22 672.43 251.59 685.08 239.31 697.55 226.31 709.76 213.63 727.44 197.52 733.21 192.82" stroke-dasharray="3 4" transform="rotate(44.44, 711, 400)" opacity="0.47"></path><path d="M731.21 205.08Q739.83 209.18 748.05 215.62 755.89 224.33 763.36 234.95 770.49 246.89 777.31 259.36 783.86 271.48 790.19 282.42 802.38 296.84 814.41 303.86 831.53 305.53 834.38 320.21 834.59 331.08 836.82 341.95 840.92 352.82 846.63 363.7 853.55 374.57 861.23 385.44 869.16 396.31 876.82 407.18 883.69 418.05 889.32 428.93 893.33 439.8 895.46 450.67 895.57 461.54 893.64 472.42 881.87 487 869.73 502.65 857.26 518.13 844.54 532.15 831.61 543.63 818.56 551.79 805.43 556.23 792.31 557.06 779.24 554.82 766.29 550.45 753.52 545.19 740.97 540.4 728.69 537.38 716.71 537.27 705.06 540.8 693.78 548.29 679.44 552.92 665.4 562.48 651.33 567.42 636.96 563.26 629.5 554.79 621.82 542.99 613.9 528.68 605.72 513 597.27 497.23 588.54 482.64 579.52 470.36 570.22 461.19 571.11 450.48 571.06 439.77 570.08 429.07 568.22 418.36 565.62 407.65 562.45 396.94 558.91 386.24 555.25 375.53 551.7 364.82 548.5 354.12 545.86 343.41 543.97 332.71 542.94 322 542.84 311.29 549.75 293.99 566.49 287.12 577.43 288.34 588.63 290.18 600.06 291.71 611.7 292.05 623.53 290.49 635.5 286.56 647.58 280.11 659.73 271.3 671.89 260.6 684.02 248.68 696.07 236.36 707.98 224.5 725.46 209.47 731.21 205.08" stroke-dasharray="7 1" transform="rotate(48.48, 711, 400)" opacity="0.51"></path><path d="M727.46 217.33Q734.76 221.04 741.75 226.8 748.46 234.6 754.91 244.18 761.14 255.09 767.18 266.73 773.07 278.39 778.85 289.37 790.29 305.7 801.85 315.71 819.37 319.44 823.81 333.26 824.73 343.49 827.33 353.73 831.46 363.97 836.88 374.21 843.29 384.45 850.3 394.69 857.53 404.92 864.56 415.16 870.98 425.4 876.42 435.64 880.58 445.88 883.22 456.12 884.18 466.36 883.41 476.6 873 491.03 862.22 505.22 851.12 518.19 839.74 529.06 828.12 537.18 816.32 542.18 804.39 544.05 792.37 543.09 780.31 539.95 768.26 535.51 756.28 530.79 744.41 526.88 732.68 524.77 721.14 525.29 709.81 528.98 698.74 536.04 686.01 539.8 673.27 548.23 660.1 554.2 646.48 553.26 639.33 547.49 631.95 538.62 624.33 527.09 616.46 513.62 608.33 499.14 599.95 484.66 591.31 471.2 582.42 459.63 582.8 449.62 582.33 439.62 581.03 429.61 578.99 419.61 576.32 409.6 573.17 399.6 569.72 389.59 566.17 379.59 562.73 369.58 559.59 359.58 556.93 349.57 554.9 339.57 553.63 329.56 553.17 319.56 558.9 304.57 573.92 300.9 583.85 302.77 594.03 304.42 604.44 305.12 615.07 304.27 625.9 301.41 636.9 296.35 648.06 289.1 659.34 279.95 670.71 269.35 682.12 257.92 693.55 246.35 704.94 235.34 721.86 221.42 727.46 217.33" stroke-dasharray="9 2" transform="rotate(52.52, 711, 400)" opacity="0.54"></path><path d="M722.29 229.59Q734.41 238.91 746 253.45 751.55 263.28 757.01 273.96 762.42 284.95 767.81 295.67 773.22 305.55 778.69 314.11 790.06 324.91 801.96 329.95 810.93 333.58 813.61 347.23 815.1 356.83 817.95 366.42 822.03 376.02 827.13 385.61 833.01 395.21 839.38 404.8 845.92 414.4 852.32 424 858.27 433.59 863.46 443.19 867.66 452.78 870.65 462.38 872.29 471.97 872.5 481.57 863.37 494.39 853.92 506.06 844.15 515.93 834.11 523.49 823.82 528.44 813.32 530.75 802.64 530.61 791.82 528.44 780.9 524.86 769.92 520.65 758.92 516.62 747.92 513.61 736.98 512.34 726.12 513.41 715.37 517.18 704.76 523.78 693.18 526.75 681.34 534.01 668.83 540.51 655.78 542.05 648.89 538.65 641.78 532.55 634.44 523.91 626.88 513.11 619.07 500.75 611.05 487.54 602.8 474.26 594.34 461.71 594.23 452.37 593.38 443.03 591.82 433.69 589.64 424.35 586.93 415.01 583.84 405.67 580.51 396.33 577.1 386.99 573.79 377.65 570.73 368.31 568.07 358.96 565.95 349.62 564.46 340.28 563.69 330.94 568.26 317.68 581.56 315.64 590.48 317.29 599.62 318.12 608.98 317.62 618.56 315.42 628.33 311.32 638.3 305.29 648.45 297.47 658.74 288.19 669.17 277.87 679.7 267.06 690.31 256.31 700.97 246.17 716.96 233.37 722.29 229.59" stroke-dasharray="4 1" transform="rotate(56.56, 711, 400)" opacity="0.58"></path><path d="M716.13 241.85Q726.75 249.28 737.02 262.8 747.14 281.13 757.34 301.43 767.84 320.15 778.88 334.15 790.68 341.63 803.44 342.79 803.75 360.63 808.66 378.46 817.37 396.3 828.45 414.13 840.11 431.97 850.45 449.8 857.79 467.63 860.93 485.47 844.81 504.21 827.58 515.26 809.4 517.72 790.45 513.32 770.95 505.97 751.11 500.6 731.16 501.6 711.33 511.51 700.56 513.1 689.27 519.87 677.34 527.02 664.66 529.73 651.17 524.63 636.86 510.8 621.77 489.99 605.94 466 604.21 448.63 600.16 431.26 594.46 413.88 588.03 396.51 581.92 379.14 577.12 361.77 574.41 344.39 574.24 327.02 589.5 330.41 605.52 330.72 622.33 325.33 639.9 313.38 658.19 296.05 677.09 276.11 696.45 257.01 716.13 241.85 716.13 241.85 716.13 241.85" stroke-dasharray="11 1" transform="rotate(60.599999999999994, 711, 400)" opacity="0.62"></path><path d="M709.53 254.11Q719 260.58 728.4 272.25 737.9 288.3 747.67 306.78 757.87 325.03 768.67 340.38 780.2 350.83 792.59 355.62 794.21 372 799.45 388.38 807.58 404.76 817.52 421.14 827.93 437.52 837.41 453.9 844.67 470.28 848.74 486.66 834.9 499.08 820.12 504.49 804.46 503.4 788.06 497.99 771.04 491.6 753.56 487.88 735.78 489.89 717.87 499.26 707.58 500.28 696.7 505.85 685.16 512.48 672.93 516.47 659.98 514.88 646.34 506.23 632.05 490.84 617.18 470.74 614.81 454.71 610.57 438.67 605.04 422.64 598.96 406.61 593.15 390.57 588.4 374.54 585.35 358.5 584.4 342.47 597.8 344.19 611.83 341.74 626.53 333.84 641.92 320.64 657.97 303.58 674.64 285.08 691.86 267.82 709.53 254.11 709.53 254.11 709.53 254.11" stroke-dasharray="10 4" transform="rotate(64.64, 711, 400)" opacity="0.66"></path><path d="M703.06 266.37Q711.73 271.92 720.52 281.81 729.57 295.57 738.99 311.91 748.88 328.98 759.35 344.7 770.49 357.25 782.37 365.42 784.96 380.23 790.29 395.05 797.77 409.87 806.59 424.69 815.79 439.51 824.35 454.32 831.34 469.14 835.99 483.96 824.25 490.45 811.72 491.46 798.46 488.18 784.53 482.69 770 477.6 754.96 475.45 739.53 478.25 723.8 487 713.85 487.55 703.31 491.97 692.18 497.82 680.44 502.42 668.11 503.38 655.23 499.11 641.85 489.12 628.04 474.11 625.16 459.48 620.85 444.86 615.56 430.24 609.88 415.61 604.44 400.99 599.82 386.37 596.53 371.74 594.93 357.12 606.54 356.15 618.65 350.86 631.3 340.97 644.53 327.14 658.34 310.85 672.72 294.02 687.64 278.64 703.06 266.37 703.06 266.37 703.06 266.37" stroke-dasharray="5 0" transform="rotate(68.68, 711, 400)" opacity="0.70"></path><path d="M697.27 278.62Q705.37 283.31 713.71 291.52 722.37 303 731.42 316.99 740.93 332.27 750.96 347.39 761.54 360.89 772.73 371.55 775.95 384.71 781.18 397.87 787.94 411.03 795.66 424.19 803.68 437.36 811.28 450.52 815.36 471.14 802.43 476.71 791.39 472.5 779.78 467.67 767.65 464.05 755.04 463.32 742.01 466.7 728.63 474.75 718.98 474.9 708.83 478.25 698.18 483.17 687.06 487.8 675.48 490.36 663.5 489.43 651.14 484.2 638.48 474.56 635.27 461.43 631 448.31 626.04 435.19 620.81 422.07 615.77 408.94 611.36 395.82 607.95 382.7 605.84 369.58 615.75 365.61 626.04 357.9 636.75 346.75 647.9 332.99 659.53 317.91 671.64 302.93 684.22 289.46 697.27 278.62 697.27 278.62 697.27 278.62" stroke-dasharray="5 10" transform="rotate(72.72, 711, 400)" opacity="0.73"></path><path d="M692.68 290.88Q700.31 294.76 708.23 301.39 716.46 310.69 725.05 322.22 734.04 335.28 743.45 348.93 753.3 362.15 763.61 373.97 767.16 385.41 772.1 396.85 778.09 408.29 784.74 419.74 791.6 431.18 798.23 442.62 792.91 457.96 773.82 453.13 763.92 451.03 753.62 451.5 742.95 455.22 731.94 462.49 722.69 462.33 713.06 464.71 703.06 468.62 692.71 472.83 682.04 476.12 671.09 477.41 659.9 475.86 648.5 471.02 645.14 459.49 641.04 447.96 636.47 436.43 631.74 424.91 627.16 413.38 623.03 401.85 619.63 390.32 617.18 378.79 625.49 372.23 634.08 362.91 642.96 351.35 652.16 338.34 661.73 324.84 671.66 311.85 687.33 295.58 692.68 290.88" stroke-dasharray="6 7" transform="rotate(76.76, 711, 400)" opacity="0.77"></path><path d="M689.67 303.13Q696.82 306.27 704.23 311.46 711.92 318.69 719.89 327.78 728.18 338.35 736.78 349.86 745.7 361.72 754.95 373.26 758.54 382.96 763.04 392.66 768.21 402.35 773.81 412.05 779.57 421.75 785.2 431.45 781.82 443.09 766.68 439.27 758.81 438.57 750.64 439.97 742.18 443.82 733.42 450.23 724.79 449.85 715.88 451.39 706.73 454.26 697.35 457.74 687.77 461.06 678.02 463.47 661.44 458.79 650.96 443.4 646.86 433.54 642.67 423.67 638.59 413.81 634.83 403.94 631.56 394.08 628.95 384.21 635.78 375.99 642.79 366.09 649.99 355.01 657.41 343.33 665.07 331.72 672.99 320.8 685.43 307.13 689.67 303.13" stroke-dasharray="6 10" transform="rotate(80.80000000000001, 711, 400)" opacity="0.81"></path><path d="M688.5 315.4Q701.79 321.73 715.89 333.85 730.86 350.85 746.69 370.52 753.98 386.46 762.88 402.39 771.1 423.69 758.48 426.27 746.14 428.74 732.97 437.97 717.27 438.3 701.01 442.78 684.29 448.21 667.28 451.19 660.76 434.87 653.6 418.56 646.76 402.24 641.16 385.91 652.19 367.86 663.67 348.16 675.74 329.81 688.5 315.4 688.5 315.4 688.5 315.4" stroke-dasharray="5 3" transform="rotate(84.84, 711, 400)" opacity="0.85"></path><path d="M689.29 327.65Q700.86 332.22 712.96 340.61 725.58 352.56 738.72 367.22 744.9 379.78 751.96 392.33 758.65 409.69 749.37 414.24 740.24 417.8 730.61 425.71 717.3 425.45 703.73 428.16 689.96 432.32 676.07 436.2 670.45 423.3 664.52 410.4 658.81 397.5 653.81 384.6 662.26 368.76 670.95 353.02 684.61 333.28 689.29 327.65" stroke-dasharray="3 10" transform="rotate(88.88, 711, 400)" opacity="0.89"></path><path d="M691.96 339.91Q701.3 342.95 710.93 348.18 720.83 355.58 730.98 364.94 735.8 374.23 741.03 383.53 739.62 402.19 726.55 413.46 716.14 412.85 705.64 414.08 687.56 413.32 675.45 400.54 670.99 391 666.88 381.47 672.98 369.43 679.18 358.12 688.72 344.02 691.96 339.91" stroke-dasharray="2 3" transform="rotate(92.92, 711, 400)" opacity="0.92"></path><path d="M696.27 352.17Q709.62 356.67 723.38 365.15 730.1 377.42 737.07 389.7 729.27 393.35 721.15 401.2 706.89 400.73 692.65 403.12 686.38 390.59 680.33 378.07 692.26 357.9 696.27 352.17" stroke-dasharray="0 8" transform="rotate(96.96, 711, 400)" opacity="0.96"></path></g></svg>